<mxfile host="app.diagrams.net" modified="2021-10-27T08:46:00.440Z" agent="5.0 (Windows NT 10.0; Win64; x64) AppleWebKit/537.36 (KHTML, like Gecko) Chrome/95.0.4638.54 Safari/537.36" etag="eg4QFncvnzxBNDrFWqvV" version="15.5.8" type="github">
  <diagram id="ESPSS-fBde2a-eXCUYpg" name="Page-1">
    <mxGraphModel dx="593" dy="313" grid="1" gridSize="10" guides="1" tooltips="1" connect="1" arrows="1" fold="1" page="1" pageScale="1" pageWidth="850" pageHeight="1100" math="0" shadow="0">
      <root>
        <mxCell id="0" />
        <mxCell id="1" parent="0" />
        <mxCell id="pmO0DAG3zzc0AXKCMoeY-86" value="" style="shape=image;verticalLabelPosition=bottom;labelBackgroundColor=#ffffff;verticalAlign=top;aspect=fixed;imageAspect=0;image=data:image/png,iVBORw0KGgoAAAANSUhEUgAAAOQAAAC8CAYAAABoigIXAAAgAElEQVR4Ae3dCfy1xfQA8JJEVCqiKIpS1kqytFgiS5uIokJ2EkKp1J92VBIRhYpEQqXFlkqWSqIka7bsZC0SMf/Pdz7v+X3mfd57399dnnvvc5/3zudz7zzPPLOcMzNn5syZM2eW+t///pdmv1kdzPpAM/rAUp0aIs3crAZmNTC2GihpcBGCBMUNN9yQzj///HThhRemiy++OH3uc59LF110UX7+0pe+lC699NJ0+eWXp6uvvjpde+212f/Od76Tvv3tb6errroqeRbunf+DH/wgff/738/+j3/84/STn/wkXX/99XM/Yd6FV38//elP58I8xy/idXuP8Lp85UVeUXaEle/lczec5ouzuHQBAz/yKcNG+fzzn/88/exnP8vlluUEHPyAi68flfGqzxE/0kQ+1XjDvssX7L/4xS/mYBcGl1/+8pf5B9Z4F8+7b3/4wx/SjTfemH7961+nX/3qV/n597//ffrd736Xfvvb36Y///nP6Te/+U1OqwzfhMvLTzw/aX2Pd9/g9c9//nMhDnUhgowhYa+99kpLLbVUbb/b3e52KX63v/3t0zLLLJPfPS+77LL5JyzCxV166aVzHHBE2jpgusMd7pDudKc7DY0b+KrwBMzhwy1wijC4wDtw9Oybn/zEjzryLMy3eC7LlEe83/GOd0xwi/dR+CWcveRfwtdL/G5x6mqvqOOyHPXqB1a/6vPyyy+f7nKXu8z10zvf+c65/0R9r7DCCgvVO1iXW265uXbwLG60n3c/fWPllVdOl112WSa7mCU7EuQrXvGKnOHLXvaydNZZZ6VPf/rT6ZOf/GT61Kc+lS644IL8fuaZZya/T3ziEwv5ws4999wc5+Mf/3j+xj/jjDNy3NNPPz194AMfSCeeeGI6+eST02mnnZY+9rGPpZNOOimdcMIJ6d3vfnc6/vjj05FHHpmOPfbYtP/++6d3vvOdOczzvvvumw444IB04IEHpv/7v//L7/vss0865JBD0pvf/ObkWZxOP+k23XTT9KAHPSjn4X2//fbLZbzlLW9JBx10UH6vphVP/uIefPDBOd7b3va27Psm7eGHH57e8Y53ZJj58IAXPN/1rnelY445Jr33ve/NeHzoQx/K/lvf+taM/1FHHZXxPeyww9L73//+dOqpp+b68AxH8eQDvsDvDW94Qy5PGnA95CEPSY997GPTm970pjncAzbpIlxYiV/gL04ZXj6r9ze+8Y35u3iRh3DP6kQdqKOyLcAY+UgvrjTi8KXx3TM8Dj300Iyvd+Fge81rXpPWW2+9tOeeey7SNuLpB1FGJ1+ZAW98l05Y1KVwz2DwrQyHg58wv07v1fjle6SLML4ynvKUp2Qa+8pXvjI/QULeKPL5z38+Js053xQ9n/vb3/6W/vOf/8wXbSLf3/Oe96SXvvSli5SNTfz73/++SHg14C9/+Us1qBHvuJrjjjtuEViwRf/9738XCa8G3HLLLdWgxrzvsccePbVNYwDuARCDNRrriyDNiOF++MMf5tF79dVXT1//+tdzcEyz4Qv88pe/nFZZZZU88nuPb03wwYMgzfzhrG932GGH9JjHPCZtttlmecSNwSRgjrhmsnXWWSevK4TF90n6AdtLXvKSPMvGu/W7UXiLLbZIT3ziE/MsHYQZ8EZco/7Tnva0eG0EXmDkbrrpprTrrrvm9Zz3CPe89957p6233npuwAm8Io713KMf/ejMjUTaMs6knsHy0Y9+NBMkeUwJW0eWNWbIkiCxWdg9VE2gU2YSFXDNNdekjTbaKOGrsaLVOJOqgCgXPNjhF73oRRk2f6961auSzvzvf/87L87XXXfdhfj6iIhlX3XVVdMDHvCAFLNk5DtJP+CrEuSrX/3qzMr5bhRec801FxpIIt0HP/jBtPbaa6edd9453XbbbTl4kviUZQMG11ISZMCNG9Ae66+//tzsGWnFufXWW3M7r7baauntb3974/CyFERLAxEkRLkrrrgiL1Cr06xvJE1GZJJZaxlrRS4qqQk+eMyQz3/+8+dgM/P/61//yu8GEQT3ox/9aO67h69+9atpu+22y9LmLbfcMt18881z3yeNVwYkpTyoWHdzYPrTn/6U/vrXv+Z22HHHHdOLX/zihQhOvPPOOy/ttNNO6Wtf+1oiNwg3aZyifPB0IkgyCcsOso1NNtlkbnkkXThrNYNvrMGFR76T9sFCZjIwyxqI6pikSEGQgbzRCBFutdVWed2JrbOmITJuWkUQEJk9Ai6+gcYMgbW75JJL8rf4swYzgxA44BLMoARZ//jHP3KUJjQuQMoZMtpL+Be+8IX0yle+Mm2zzTZZlB94YWnNmmYaAqMnPelJeSkSaSeNV8BRJUjLJUsiMztB2RprrJG34wIvPkGPNjM5PP3pT08veMEL8gDlW1Pw+vCHPzw8QaoMIvnotAjRnou9FBJOaxEsIDGxzm2vpymVEA1M+kmqFg5xbbzxxsmoWzqzoPWLNSZJHymh9QoR9stf/vK8HyX+pBs4YC4J0loRjPaMw2244YZz79hzs6K1NLwQ6z3ucY8sZayuMyeJH9irBGmfG64GGQO/rQz9jtMfrf9Jb303Kay11lp5GXXllVfmOJPEJ8oGiH43NMt63XXX5S2Db37zmxk5m5uEBjb2S/f4xz8+b5MICyCa4IPHFkSwrDofFvRRj3pUet3rXpde+MIX5o6M1RNvt912K9HKCg8GGrg0BbcAsCRIYQaezTffPG/DPO95z8s4GzhtTXgvHeUNksxwTWirqOMqQQaMfFtsWFbOsmP77bdfZGcAN1Sy8k3ADbzkM0MRJER0YNseMYpaN+6+++5ZiyHXyoI/2ghmlyYgX8IAPHugCI/zTWfEiptN/EiJjbSEOKU0VnyzpkEo0pZ5T+o5A9OFZYXbZz/72axlBSfulFNOySxdpONjv2mRTAqHbuWCrUqQ4obTx2xXcQjSQBNCkohD40Y/5bqVM+5wsGC5e15Dmu5Fpj5XIpJfij/SxqiQEqmIUoY14RlclA9iNgBTN0fYY2DhAvaIG+9N8AMmM+QRRxwxB2+EV30CKxwAF/BHnHhvig8usO6yyy4LbXsEfAE33+yPnfWNq8aJ9yb44MPB9E2Qn/nMZxZCropM/lggX/3etHfwEuqUBNkNxmnBLeBEkL2I9yN+N7ybFA5Wg/6zn/3sjgRZwhp48cvwJj6D0ZKoZ4Ks7kM2EalBYFIR1NB6IchB8p9EmuiItgGoGnKTgGMUZcKlE8s6irLGmSe8bL/1TJDBsp599tmta2AL/DYSJKkqNogbZ+caZVlwQZDPfe5z550hRwlH3XnDi15zzwQZyuU2jtvWwAjSvlRb8MqIpJSlw20kSCyrPWLHl9rUZn0RpNEW9VaPhtQ9Uow7Pw1qv7StBIkNakun1Tc4Uv1nPetZrSPIvljWIMjYbxw34YyqPA3sGBI1Mm5U5Ywz34xISnkj3JZOW/BSh1wIddo2QzqiZ9Kz5Va2WUfl8mBZaXOUkcfZ0UZRFlxodZBItgWvjEhK+byg86VtwSsI0tYTPWIn9tuCGzyoYfa9hrSp3JZKiAamTlUqBoyC8MeZZ26glLJy+Pve977WtZcjVDRw2kaQDp/3TJDBsrZxhqS72cY1JBWx0Mcd54AwyrKMLg4oOK/aNoK0Z9wzyxoE6UQAN8pKH2fecGE+IY4ajbPsUZWVGyilrABP3a9t7TUjyJSyDifqdeC4bQ3sNIpZsi14ZUQWnJ4/55xzWoOXAYwjZaWp0zahTl8zJKVqBEk3kBvV6D7ufOFiDVmehxw3DHWXlxsopfTa1742H9htW3u1VcraF0EGy/qNb3wjt3fdnWhS+UEGu+p8Y1s6bkZkwUDDcFJb8NJHOIcXHJEj3GkLbvAYiCCbdKizDiJWEWbHONBaR56TziP30havIR2d2nbbbRt3hGqYdtdmzIv0LGUNlvVb3/pWbu9hCm9SWsiY/ds4Q77+9a/PNn/g2KQ6HwYWuLA68bjHPW6Ro3DD5DvptPBifqRnKauTA6w4N+0w7rAVqSIIdfy4YfNrQvqMSErZ4sF8x+WaAG8/MMCtrQTJ0HbPBGmGZKvEHR1t6bg6Agc3p1nagldGZIFQJ8x29tPpmxwXbmwasZm7RK8hgyC/973vta7jYlntRXJN7oy9wpYRWaASGJbme03b9Hhwc+HNk5/85GxMrU1t1pdQJwiytE/a9MbrBT4NSqgTJvd7SdP0OCVBuqWsLZ1WvXOsGrZRqNM3QeJv2yrUYTy3LR03I5JSItRp4/lVa0hWDKv2jZo+UC4OPm3WF0ES6rg+q5MBq8UV1PRvKsLsz24n13R4e4EvI9JilhWXxpxl29aQRx999Eyoo/O6oIWhqzYSZBtZVpensqrethkyzkPGLQAx+HY8DxkzZNMsjwfQg/qIkFCnTcag8siyYIZsI0Hi0lxT0TaC7GvbA0G6MqCN+5BYVpertnGGbKOU1baHawKbdk/MoJOCdFzfa8i2EqTBBv8+I8j/NX4NrY2cg3zqU5+6ZG97tHGGzBSYUr7joq3bHm2cIa0h3adi+6NNg+gSP0MGQbIWMCPI5s+OwdpRTnEZ0oxlbdkaMgjyOc95zowg/zddBOla8hlBtpQgWcGezZAzghxGKDNsWpPDjGVdMEXOCHI6iLFkWWczZAu3PYJlnRHkdBHk97///XzaY8aytphlbatiQBulrO7pbKPq3IxlLVjWtqrOtZEgr7vuupmUNfYh//SnPwWn1xrftsdJJ53UGnwCESdYvv71r8dra3zmH7fYYot8zXxrkCps6vR8tweLAS5u1dAuqGniz0FjanAuYT3wwAPTQQcdlH+e3VDrhiG2S8yIrmpjvv0Rj3hE2mqrrXL8ww47LKd3I9Z+++2XcRXmyrpDDjkkh3XDW1nKOeCAA/JPPHUlvFuaTuHSY1/oNnoGizzkdeihh+a8fAcTDSPXBcDrqKOOymHwgv8jH/nI9KIXvSjj696Ij370o/kee4PPiSeemAehU089Nd9L6A4Q4X7x7M5730877bScTl15ls9HPvKRHPeUU07JcU4//fSczpVqjDW55OfDH/5wji9P8bxLJ3/v0vgJA5+yfFOGXzzz4Qge6bTDfe5zn6x/LM/IB1xRpmfh/HiOeIsLL+OM85mF+Wc84xm9n/aggM2mjg6hYXQAPw2gsvgRVvonnHBCbvzoNOW3UT2DBdEhDoSng+jcQYQ6s46sA+vo6623Xtp4442zXZ2DDz444yGNrZAjjjgiNzxill66Eu4Sd+X6SWdNWsbzjFCqYd3e1ZsfOCLf8KXxLXwwwFeZEd+gtNFGG+U7MNidjUFF+yEWeOyzzz4ZJvUgvjjyQOgGAXGF+akHYTHYOZngGXH4rn7F9zMYiK+e1RnYfBdfub5L51vkI37kLb66Akek8wxO7fP85z8/3fOe98yHApzU8WM18HWve11uT3kZyLwbVJ0LFce7Zz+4M47N9+5bxJc24kd4pC3f63wGy6abbprN5PQ0Q2JZl1122Ww1ul824b///W+/ScYaH8uqg7fNGWzayLIy4YFlveWWW1rVZAb9ns1AxhqyPO3xt7/9LbkNa8cdd0x//etfc+XEBqmX7373u2m33XbLF6PstNNO6Qtf+MJCcSLupPxozXLbQ5hjPfvuu2/aZZdd8mhcvWBIHMISuDFpb4Rtkl5l4GXWCKGOMAd7jfzwwvFcffXVOWrUvxcWBsxA4pjhXB/ORZxJ+2ChOlfdh8xAppRnXLNvOPBy//73v/Psr61333333G/LOFW8fKuGjfJdeeq7Z6tzVYKUAXYCu3f3u989X6IZSPBvu+22rACs4W+66aY8A6200krphhtu8HmsyHaryAxISvm++lJTZ5tttskd0j0m1i9YvyA4aZxUF2a94nwoooz7JZuAW+BVEqQ6ePrTn57XlAjT7Lnuuusmg2o45wwf/OAHJ/eB/PjHP85nDpu2HQTWKkEG/NaiOjSr5uHgzemrT3jCExIJ7QUXXJBZ3uqA1K2fjCMcjEMRJCD/+c9/5gX5fe973zlWNoBHkNdee22WhF188cV5wWrk/de//pUrKOJN0s+AdCBIN0a5P4LDATzoQQ9a6DDszTffnGd/+LN7qqF1Bm6S+ETZGZCKCQ/LBjM9vNxgRtjzvOc9L88cAfeNN96YLr/88jzgIEqW3Zp2wBmsnQgSkeFY2Nd9ylOeElUw1x5u/jYZGECtXQnxWEAP3KPuJuWDY2iClImGQ5DV7RCIhXO/hNGZpbCINynEy3IDvpJlDbh/+tOfZtaG/c/zzz8/oi7kW8sQRKy//vrZJk+slcsyJvEcQJYzZITxSTOxfC6pNbhUnZmDJT4DUdOMZIG1SpCXXHJJeuADH5iuuOKKbM5zk002mbO3I360qWf4GGhYHGjS7Vlgq4UgzSb3vve9k9G1dNaUWDmVx5kZ11hjjTmrdWXcTs9lJVaf6+rkUW5JkMLOPvvsbLOlm6AHTiR54bC1q666ambNhdUF36D5BFwlQWKzrXXD7AUOBsHFXS3SfPGLX1wILzOJc4fhBoWnznRgqRKkLRNbPGZ8S6jll18+S3MDbj7JbingMkNacnB1wjdoXuCojSDvd7/7zbF4F110Ub7/3bqRuP3hD3943j/beuut87oshAT/+c9/ssDAYhux8n3j/+Mf/0hmG3n4RaWFPyjS1XQ54wrLSj/ybne7W55BWKKDA1H7rbfemvFwxZvObebE9tlCsJ4kqg9XLWfc7wFHSZDqmGANe22Pj2CD4Ea4eLZOmMawroS3zspMhr0/btw4dCsPLFWCDPj0KYMOCaxn7DmL9O6T1Nk32GCDvLSwfrb3XAoou5U3rnA4DE2QgMWCqqBg1y677LJMkIiKO/fcc/Ooa3PWqBxOR1B5D33oQzMg4uv8G264Yd63lHfsU8mboMUeV7g6KiryKmdIQg6w2s8j0LD3ZQQGu2frFA5HYK/MPlrT7s8IvEqCFKaTwk292qyPNrLusl/HEebAWxwzJldHXdeVB3g6EWQGNKUstIkrEw3wBiGCHO6ss87Ke8Ta7ec//3kOqwuuYfMBTC0EmbFa0Gie8eUatZsLwH0nZCAV23nnnXP0M888M7/HTVRGagIIHemud71retaznjWXbeQzjB+ZlQQZYZ18Ao9Yd3T6PgwsdaYN2EqClH8nZ7CzHVVKkavx6oRt2LzAViXIMs8SdoOrTXZcVydXppv0M/hqIcgqIoF4Nbz6HvEssFdcccV8iQ8+H/u71lpr5T0y6zQzKUdyFuu2al6DvgcMJUEuLq+Iv7g4TfgWcFYJshtsEb/b9yaFg3VxBFnCGnjxy/AmPoNxJATZD7KAIPUySzJ8S8Qes6R1WRiMFQ/rqyG4fspYXNycWWUNubj40/It8OqVIKcFL3ByvRLktOHVCIK0l7fOOutklpRkViWuvvrqeW0Z61KzJKHDhRdemBukroqOjtvrDFlXuaPOJ/CaEeR0HbyeOEHqmJxFNoFJOICVWw7WNyuvvHLWqIk4dXTqyGtGkNPVcds6Q9ImGlh1rg6CKPMwG8Z7EEq8823Ck5qVYcM+RzkzgpwR5LB9adj0+mIjZkiIhAukqu+d4kTcYfwoZ0aQM4Icph/VkVZfbNQMWQdS/eYxI8jpIcRoW202Y1lTStXTHlFB0+zPCHJGkE3pv/qibb/GrCEnUTEzgpwR5CT6Xacy9cUZy7qAImdryOkhTE3WVpZ1NkPOCLJWqXWnkb/usDYS5IJumG0W9cWyLrfcco068T9sY0dFzGbI2Qw5bF8aJn30Q0bE+iLItl3YGhUxI8jpI8g2XkdHOaZvgmzasZU6RqYZQU4XQTIN4zzjEn23ByNOTmK7TpobhhCaknY2Q04PIUaf0WYu26lanYvv0+rDqy+hzotf/OJ05zvfubUEySYmN60NWsKdEakYuSq/T/Mz3Np6t4fjhT2zrEGQcUB3mhs1YI+Oi2WdEeR0zJZBkG2cIfsiSJo6yyyzTKPskARhDeqXBFnaZR00v6akC7zaevzKDMmm0R//+MeMalPqfVA4or3c3dLzDGkNecc73jGfupDBoIU3KV1URFuFOmwWheXyJtX7MLBoM4oBbZKyRj9k26hngnzZy16WZ0j2SrlhKrUpaaMiZgQ5HeyqfsOZIZl9bJuU1U1oPRPkHnvske50pzvNGXlqClENA8eMIKeHEKOd20yQfemyIki3X832IZvfiWOgaesa8jvf+U7eh2zbGtISo+cZsu3Hr9gh5WIknma/7QRJMcB1AW1hWaO93DfZM0ES6rRVl5XxY5fQto0gXQLaRqGOaw4333zzuesrpnnwBHs4doh7Jkhm891aG7dCTXsllBWx66675luK20aQ7rpo2p2cw/YbbcQC+dOe9rQ5S/jD5jnp9EGQuNCeCdJdEKuttlqjbq8atiKjIkhZ28iywquNBPnlL385ryHjbsth+8Gk00c/fM5zntM7QRLq0GVtq6ZOGwnSvlYbWdZLL700X+JUvbV70oQ1aPlBkJZOZkj343CR31LxwA9HdW6VVVZpjXZEiZuLZJt0NVlZ/4M8R5u547GNBOkSIDc9t40g3aGKIN15w0XbdyRI7M/aa689d2NSRJ5mPzqui0vPOOOMhSqhDXiR2rWRIF05Qahzyy23tKLNoh/usMMOvROkizvdrxeX30xzhw3YoyJe8IIX5DsTvce3afYDr7333ruVBPnpT38634KsjdrQZtFefRGkiz7vc5/7zF2BPc0dNmCPiiDdckd9Gxo3OilczPxtFOq4j9Ptz3H5b7TntPrRD4MgXaFX9sWOLCuCdFVcXPI5rciXcEdFWEO6yLSshDLetD0HXoQEbWRZP/vZz6aHPexhrSXIuHo9+t0iBOneDVeTP+QhD4m2bpVPGkmU3ja3/fbbJ1fMt82dfvrpeQ3ZNry019JLL50tIsCtK0G6wfgBD3hA/tG0d/xllD8mGubLXxy/H/zgB9kX383NTqPQt3VjFtWq+LmC3F3z9q742J2bbropvzvJcs455+Rn8VzT/rvf/S795je/yenlZbuH+RL6ky7+8c275xtuuCHHF893d9dL//vf/z5/F+Y50vDBKM/4/eQnP5nLJ+LJTzo4BD7ggwMY4XHzzTfnH87FD17CSCAf+9jH5js3CT/ie9UXtxrW5He4nHzyyfkCX3C6zrDJ8PYKG9kMZQdbi/rUvAS58cYbJ1bn8LnPfvaz893t7m8fxW/HHXecy/eZz3zm3LOyXGv+jGc8I4njt+2222aYwLXddtulrbfeOm2zzTYZRj5hlPDHPe5xaauttsrfiJd9k/apT31qVnhYf/31cyO7qVl86bbYYoscpmP7bbnlljmfKN8ls8o1sgl7/OMfn7+DQZhvYJaXOlOu8oQrXxw/G8Jg80wBQxp5gA+O0vl5t3Rw67R3cArjR14a1TvfNfCkkeowvk+zDy/16CwkczJwVw9141TWZ7e8O8URBqZIU30XHunCF6Y/+K200krp7ne/+yKmVhdhWc2QD3zgA/MMaUS97bbbkjC/cPFe+uKVDutbfu/2fOutt87Fcz98NZ4wcfyMmEYXz0YjM4NZwixiZjHb8M1iv/jFL/LoY/by7meGsqXzsY99LM944puVqAjKSz5mp5gxxY/ZVXlwUrb44hndpDODmc3MwmbSyE+4Z3lE/upUmLJi1o6Z2izo2Xd4yN/sGjOu5/IHR3hdf/31abPNNksf//jHM47i+AYPMzZYy3TxLH/l+ME1wpvg4zy0z3vf+96sqeMdTiVsvvuVYfEsHO7qoJou4vDlW753eu4URxhOJ+JX34UHB1em117SGTwZAfCNm5dlfehDH5o7YElkiAG72M2RGJ166qnpqquu6hZl4uG2By6//PKF4NBgwqJyFvq44OVb3/pWsgBHZE10ZvDq2liHgBeC7ubg9c1vfjN3iG5xJhlu8DTDdHIGaINYJ2cQhHscsu8UZ5JhZklnjntiWbF0tCPMTpzZzwYt1ktG4VA1Z1bba6+9MtvnXJ7jMoceeuhcIwf1T9IPmMFJHSvcMccck9nT/fbbL2200UaJvZ3ASxwzIzbTzGrzncDr29/+dk4+SXyibIBoJ2xwXAOvvVjGNms6BYLtO+200+Zg9mBg2XnnnROpM8V06a3Luch70j5YPvKRj2Q2PAO2ADbPZnScnJP34cDLkcyagQjwLEX0RX2UawJO4LDMWHHFFfMMX8LVkWWtEiQ2jaVlklfrp3BRARoXsWKduE984hOZ+rELw7q6KjDgKAkSe7nuuuvmBvRdp6VUjwjD2ZjWoQNXQiG6vuHqgm/QfMBRJUj1bv0VBHb44YfnNW/AzHe1vLV2OO3HEho3KCx1pwMLgiz7nDDsvkHk3ve+d9p///0zzPGnrzL5EfrKP/zhDzNriAvg6oax3/wCTvW9wgor5CVOCVdPBBmZnH322YuMVgAq149081TIa17zmhyOl7/66quTk9/XXHNNfubHz7f4RZi4wrBa/SLcLX7gUBIklgdRcgYTlbTLLrvM4SOvkNKKc/755+dNamwU162scYaDo0qQyuewbdrBIGMpwQVs1pU6L0dRAkdkZinjRNxJ+WCpEqSZjnKH7ZBjjz027bvvvhnmgFtftH7jSGURbJMOOAew+hqW1ZqSizruiSBF5ggNSPE6OYTnHCXW5wMf+MBcFGze7W53u6y3R5m2fLYP4z1+vsdPmJGdC2CH8QOgkiAjb41mFsTaBJse8flGWRJf6zREGemGgaeutGCpEqROi9iE2+Ixo+sAOmjpyAO0J0luE7WXwFolSIfnyTfIKyhDkHRqn6pDsCThVCXJCLi66nyYfAJO7UHSGlxk5NkXQTolgfcNB9Ef/ehHmYWg3qSCjLyEP6SKCkEAiIxxYiMw7X3rUc8XX3xxrlgqX9Y/Z555Zjr33HNTnKbmcwHsMH7AXBIk1gc+tuVgC8kAABu9SURBVBuC3TbCKkdFmUEJqNZZZ53Msgcrq6MPA0udaeFVJUhtgh0NgQGFAaqQlhZmfAR7ySWX5FnRzBnrq8C9TviGyQtuVYI8+uijk9NIL3/5yzO3ct/73jdPFPoc3EjCyTFsXcXRJvkIHwaWutJGP4ytqqEIEjERfoR7+9vfnvl70kkdgD6lhbT9NayEjvLa1742E2RMzZGWT+xP5F51zDYgYsZkuToqI8ooCZKygXWImf2AAw7IcJuVNR4crJsNJFgeg8M+++yTrCGx7uHqgG2YPMBRJUgDCSNK9kTNEDqnjs1h9wyIhxxySFprrbXy7GmNpoOElHYYeOpMC94qQWYkFvyx3HbkkUfmN8Rn3WxbiUCHcWW4k9BahsTgVCd8g+QV8A9NkAoPF89GXkQT7zqCCvEL9giBIi5aP1zE9Yyd3XDDDee2V+KbypWmTiFDwF4SpBnBXpWZw4xuzcpHkBoa2yOO0dds6uc7PMHahB+8qgQZuNrvMhPa2+TAqxPjTLQPDof2E5bPT7s1AaeAAcxVgvQtnAFd23A4HDMnvOzjwh1ufrY+cAGR7yT9gD1YVhwlFzD1zLKWFRGJCQ1CMBAFVf1uBKmS2O1BeKWyt/RBkG4I4qK8YfyAqyTICKv6iNCaeHFuGFjqTAvGKkHKv5Mz0GCR+N1cnbANmxcYOxFk5FvioC9OQ5sFzLXMkFER4Ufm8V768a1KkBF+yimn5IPCq666atp0000XImwbugj1sMMOy9HLfAd9jnJLglxcXhF/cXGa8A2cnQiyG2zTghf4ucURZInjtOAVcI6EIMsKqT5HwZ0I0ihNaklqi9dHfOedd14kyWsZYRSLuWreg7xH5r0S5CBlTCINvPohyEnAOGiZcOuVIActY9zpoh82hiDx8gQONuEJdAiKEB9lhFDxsu4RduKJJ2b466i0qIgZQTZj7dtLm84IcoEaXFVTp5fKq8YJAogZMnRg+aResblu+4OUz36S0ZCLNSTFYq6a9yDvOaOU8jZMqM4Nkk/T0sBrNkNO1yCjzRozQ4ZAga9zxzsg49mmL6WBGUHO39FmBDl/HTVpENVenKN/jswNvA/ZL1ILys37ktjP2AeK8MX5lLelmRHk/J1NPVoGOFMZyuX9tlVT48OtrWtIGm0rr7zy+Anyla98ZSYu6mnHH398Vvq12U652c9z+UOENuBnBDk/MSIkzjaNw9AzguytziY5AOUGm+QMedBBB2WtdhYIEFmpy+q920/8cn9y2EqMimirUId1gRlBTg9B0h8e6wwZBGTDltYE9TpXi1EI4F9xxRXpG9/4Rrryyivz+UJsqlMewnxzcJbWReQzrN92gsQCzQhyegjSEmOsa8ggoCCEQf3IZ1g/ym/rDDkjyOYToz7MWWLYf3ddx9iEOt0ICEAOzlJwpgvrtME4jsfMCHI6OmzZb7RZG4U6tqmcjmLkaqIEqYKxpfY5sVfYV2pzFJ65sjHqfs4FzPYhR1rHo2izNhKkerLmn8gasmwkRHHSSSdlQY7jWY5kOcM2Dhs1bSdIh6ed4uDKOp/mZ7i0kSBtUzkQP3GWVQUT8jg3GdJV5wsdaxp1R8oFpJRe8YpXpK985SsjL29chAARJ26MuF/60pdag5f649pIkNqLyZRGsKyOyNDIwbIyH4Ew7VWGG1VHjvz33HPPOatzoyprnPnCSwMzVzGTsjZ/nay9rCGdA77b3e42/xpSZFcJsDDnmaurg8mLNbCwFOZwKdMSYRmgzrKqMGdEWrqGVI9myLjbo4r7tL5rszbOkEzBoLFGzJCMDTvZzVSkE/k0c+om/E4dsO0EaQ1ZvdqsUz1MU1gQZGlYbZrg7wQrnGx7uK6jpxnSaHv/+99/IUPJnTIeNCwIAxGGMrmwQfPrNV2U21aW1T5kW4U6zs6G67W9mxoPHkylsAfMPOe82x7WIyKXlstHgdy4KzjKY0awbUIdNn6cHmBpgRtFe00iT7hgWVkFDDcJOOosEx59sayMON3rXvfKti/HwUrWiezi8ooGZXVtlAQZ5ZSwRFj4voUr4w3yLB8NzGjSOLaPBoFx0DRwa+MakkqoNWRPM6QtCATp1to6CTI6YOlrqF7coA1apotyRkWQkT+W3y9cwBDv2PQ6WXX5sppHqENHmIsyp92HSxsJUv/oWVNHZNeZ1yllVbHYKkIHhocpkIfDT1Mwp8HDNyAw9MtGqHh1DQpR3igIUt7MkbCSx/q5i248h/lFaztWEtxvyKYrM4UuurEHyzYsNyjxSMuUoDUkJf5h8hoUhlGlg0sbWdaYIXuSsoq89tpr10aQKtXa5hGPeES+qchJDrdJMdvhXg3sFiJx3MrlpQhQp2bc10U3tBrq6GQ5kxEoBsgXIbBuDqew3WpNR0WQvVDKEGuuuWZWlSJhM9AwbWIAgu8wHVr5CFx5YSZlmPyalBZuCLJtUlZ9xHZfXyyr+xOGnZ1UKKK7xz3ukS/g8c5Rl3PRiKvCOArmFARcJWAWdWCZEdxwdXSSyIsJ+rps6kSeLGSD35UI4T7/+c/nsNhzpd1voGPt3YmT0g2Dn3ywrA4oMwrMDZNfk9LCRd+wTRauSfANAgs8EKQrEHoiyDpnSIWzv6qzllcQmDFIcoUb1R1E9uzuxbvc5S4LmYQcBOlOaaJBXRtQl1An8sQugt+MF86zMObtucCNQrFLVmKLwrdO8PYaJj2CtDUQ1zX0mrbp8eCGIHET4ZoO83zwwaMvgrSmM53WNUPSHtExXRsQznrSbLHsssvm9U8QJNYEm+dOecezws2HZC/fIy+jbV0EqVwOiw3HM844I4rJSg/C3ve+9+Uwl4vCzVVptpRcZ/2pT30qf+sF/m5xZMBekXs8wm5Rt7jTFg43FzztuuuuuZ78TRsOVXjhYCcDjeEc592HRJAuYamLIK2ZmHh0qU3c24ctZcrjwAMPzBX9jne8I3do19g5kkUL3pqSicgqQoO+R4tSbK+bIA0wZiinwN1r6XLQRz/60enVr351FmZZY1K2MDs6+ykOgjTwuO2LGwYvM6PLjto4Q7ZRyqq/GKARZFw2Fe2/yN0eItcpZdXZKBu4bQnbilUjXXzPe96TO6LRwg1ZOrPLRa0drbMIdepkw3JhKWWBkktluaiEYf3IW74IzEBCmhyO1Ngg4OdSGzgS7JAkI97YBhkEDmUYZe1DtpEgzZDW6OEGqaMmpYGHZeEGG2yQdVnDOHjAuAhBWt+ZzeqYIaOQqExbKiSCZs1wpKjx7jkESb5L71vkM4wf5dluqJsgwdXNLe5bpBkWL/aKttxyy/SrX/0qZzlMfk1KCxkEidMI1yT4BoEFHiYhXCg6s/7nIq9FCBLBrL766iNXDAgA+PO5Mu6gz8owE9laGQVBDgrXsOngZWtls802m7v9adg8m5Iebm3chwyhjtvf5p0hjba2JGijx2zVlAYaBg6Na7YlOGobQTpjStJr/c0NU09NShsEaX83XJPgGwQWeARBUgyY935I6xHCBwco20iQFJUdAeMGqdCmpYEH6ao1t8G0LXipZ66Na8ggSJzovEIdFGufrI0EaTHtZH2bTkXotIRGj3zkI1vJsiLIPfbYIxOnv6YNiP3CA4cgSOtISjIlXousIVGsS1Q32WSTHLFtf2aS7373u61CC1dDE8j6v23OQXbXF7bJIWI7GT1p6qBYepf2SGx4H3744fkmY7cZ1/lj+vGoo47KSti2QD74wQ/mrRBWBPw0hI1z6nR+nl3wyqfjyo9n7/P9zjrrrJyPtbGyKXnPl2YavsPLPZo0n1hfaAte6h4ue++9d1YLhOe0tMfi4ISHqxgR4xprrDG/YgDRuRkSf+vEAqLRgYOAyvcIL/2jjz467yOWYd2e7Tf6SUM5gH/cccfln4t4XM4Tl/J4puPKR8D86nOEdfJPOOGEdMwxx2QNiTe+8Y25E0c8HdmvzDe+lX4vccr443h+//vfnw444IA8gB588MFZMyjKhQ+Y472TL858eHdKV2cYGPUr7R/wgglu22+/fVpvvfXSW97ylmyPKb4r/9hjj82wi6uf6EP8eBfHu3bnR//iS6vvsfEknr4VYb6D58gjj0xveMMbcjx56McxSZmo1Dd7UCYq4bTRGGzzDgbw2Hv3cwKI6VOzPW0xSiEOJMy77UGTZPnll8+nM9rEJgQuWNbrrrsuXlvhk7La9qBl1TaHO6JI0iZn+w0xOnccR/RiLbrIGpK2B+rdaKON5qSsURkxKsZ7ZMLnUDu9Q0esuPL7pJ/Bo8PquAGfMMRpxCJaN9oR/JSw55cF1x8Y6ShOlN+bgFdVqAM+GkA0XGg7mVUccyvhzi8p5fW0GWEYbaFR1QEYKZeXBKmswOOII47ouIUVuNnDPO+88+biDwJnlNVL2ii3jFuGxbM+5LQHLvSPf/xjDo40ixAkvcvllltuoX1IOqjubKR/WTXZGIVA3Jk8CtVNtH4GTiprJUHqyHh5LAYidc30c5/73LnOKY2tH6w7kwvW1dNAkAZVbB5CgxctHiwVp+E5e7I6NOGC6xzCRcdogg8mUlYsedW96U1vyn2NHIELeD3j8hjEpg+NbSy/R7xJ+WAhZSVhdcggrEsEPIsQJK2PO9zhDgsRpEQkeY4ulZUTmfCpA9kHYyK9iQZ7VUSVIA00eP1w+HudN1T54GXmUCeI0mmNaSBInIq9VvCzs8O8h7U5F20GL1YadttttyxRF15+j3iT9MFjhqxKWQ2g4GaBAUtbhVtfdOYVl1cORJPEJcoGK4J02sMgH8uM+L4IQdL2qM6QGeOU8qIU21Z1Mgtnn8/hXC4KaYIPnipBBsyUvs2MjjBR/g4XcHvHAahAlcnFt0n7YOnEsgq3vQMv9j9J9sKBOZzObcsk3KTxKcsHkxnSpb/h3A1DK8mgs/vuu6fTTjstD5qBU/jib7fddo2eIemLO3jBBd6LEGSnGTKQJIImoay6+G5m2XzzzaeGIJ1swbY5aRKsT1RO4Bi4ffKTn8xsYC8EGWmrflR6nb4yECTOhHCHYzlARw7nkDgRe8zuwgMvksJeCTLyC7/Eo1NY+X2QZ3laB5JQcuC3LGKfyMkgOGG3nZoJF3h5Z0UhzqMOUv4o0oArWFaGrgZiWQNJWvfEwOGMXCUL67QGlq+Jl76AuTpDWl/F4ekPfehDWaxtDwkeWNRrrrkmUM17oKRi2CFucY1F28nxKrdAf/GLX8yzbskGLy5tv9/AUp0hEST2GptqL88gSQZgALKuDP1JaYnqjdThupUfQp+I183vln6QcGUgSEf3ODDAQYe2Tnbm1PYDgZUjb7YplBNOX7R1wg1S/ijSgAX8TnoYRAPeKKvnGVICF60S+kQm9mUYHg6nwrBJOn4U0BQfjFWC1DFJjs2SGt2BacoH8DC62sQNR1AQxLo4nMS33jZyEypYozLiRfNpWAtzncpVXpUghTkETbChfWK2jEt5DBThrDHhxXXKXxinTihskEhrd4fJsbv6hHUQKTXljnDd8uonXF4I0izeyV1wwQV5fe8bRRJ1bjANZ33ZNMNfYEOQlG8oqVQH6r4IMhCNSiVa1/m4CKvGifBJ++CqEmTAWvVJVhmsKvUMyziLwyXiWY+afakikvR51oG4xaXv95v8qgQpj04O4SC+YF3LePOVK78w3EXCiVO4613vmjWEdHr4Wa+Gmy+/Xr7Lq0qQZbooi49trVqYiO9lmkk/gylmSEbewMMFXH0RZCQKv4kIB2xVH6xVgqzGKd8HxS3SWZfqpAw0UWsjYKiuF8ryBn1WXieClF+4Mu9OYeX3bs/SYcPhRGuGrIFBMutPBI59DIl1tzz6DVcmggxJqfdueVRnmm7xJh0Oh5ghcU04jxKvoQhy0sj1Uz6k+yHIfvIu4+baTSkLinRe2w8EQiTXo7CeprxuBFnCNeyzcpySgZPtBmtRamfBRWCLESk3bFmRXl7yre59x/fSzwXXWHaZd53P4IwZktaYvLkoY0aQ/6v3kk+Vax3DMLTOa6+PYMWzfdxw0QDD+vIbF0Fal8KDnmfpsPjYxbrtwirDDGlGDjdsfU06PTyCIO0Phwu4ZgQ5AoIkKGGPlWI0STTFZCYix82yRiMP6+s0pJukmKxJsLoQh6F9I0dYYYUV8lZEtYMNU7a8EGRIWb0Pk18T0sIhCNKefbiAbUaQNROkii0lfWF1oVrx0QDD+vIdxwyJIAnxSIqtJUmoS9hJblmpL8OGfYZbWwnSFho5Q7ioq44EyYCxBWd0pog8zT7Ex7GGVEed3KjqTlnjIMj5cIrvdeIpzzYTJEl8uKi3jgRJl3VGkPWuLaPC6/Y1KIK0BxeaOnWXMan82k6QrqEPF3XclSDbaHVuXDNkVO44fA1K/9aeVtVg0jjKH2UZbSfIvmbIURFkjAilr1HDjaqB5T8uggxcwi/xE1YnjvJDkPYBQyWuzvwnmRfc2sqyUp1z/UO4qOexzpAKdwDY5Tp0DCl00/ggBDnnnHOyDizAuACwLl+e4yJILKS9R5o5cQxKGLxJYOvCKepqHGvIOmHuNS9t1laCJNTpa4YsLQb0WoG9xCMoso9lPwsPHVsBNPhHqQg8LoJUDr1XCttwdJ6PQ4g21ENhvZe66iWOvGcEOR3rfe3J2fZAkD2vIUlZnRAYhTpShiilrOluT4tyMpE6Be+q+YxeOmSvcZQ7rhlSWa7TQ5BxLwUd0nHqsvZaL02Opx7bPEP2RZCkdqPa9lDR559/fu6wjgXZNP/MZz4juFZ2ruxs8h4nQdJRfPKTn5yWXnrpbPeFgnnVfkoJ36DP8DJDzqSs0zFLaq+BZkhCgqri66CdppoOUGZfmgruiWSZumqEqZpm2PdxEiRYOXeImCXZ4ikvcx0WlzK9cgh1cDTVi1vKeNP4DLfZDHn99flmY4cnR8GyRsdQ2Y7M2PN0zo6Lb6Pw5T+uGRL84SzcGTSqmmqoC0flmCGduphJWZs/S2qvgWZId0WMmiB1StLIUXXWstOriHESZBAlqwQkyFwJT13P8p0JdZpPiNHe2qtvgqxanYvM6vZzL13wV3fe1fwUM26CBEO4Kjx1vcu/zQTp+FUblcv7krIiyFFte9TVEfvNR8d1kNa61TEirt88mhh/RpDTMzvqP1zfM6Rtj9I+SRM7Yr8wqYhJzJD9wtlv/CBIa8iqOZV+82pafLgx87jEz5AIspO9j0EbTMV2cvKbzw1aZjWdcsLUhHUdV40zzHs3POQ5nxu2XCwrIVwbhTqsAZZGroapqyak1RcmOkNGZ3SWjhU3WwH8EBi509AeJMHHJZdcktXoqJuxahZqZ3VUJDhGNUMGjuCnAMACWhhcphbIFCT8fHOXiFMZDBcb/d02xg2Ko7TOKDpbF/dDDppX09LBbYlfQ9KcYb7QPmQQzaANlXtaSpnlYDpdJ2RGctttt832W9nWtP9oNrZfF0ZtmU1kvrA0VzgoDJEOLKMgSPkiBJfawItNWnuO7m0IO6GhBOESI9ePu/uE8r5LcIZVFlA+0xnMQVSvNgvcp9WHG9OSS/wMiSBdPBNu0AaV3uyA2EoDT2YICgE77LBDLoKJC3GYXmQ46aKLLoqiB545qjDLEMtqrVUXyxpAMjYM/hJuKnPC4uKhlVdeOT3sYQ9Ll112Wb6HMNhLeVRh7edd+jYfv2J1fYleQ5ohQ3smOlw/HSTiRto999wzd0wqcuHYB3U/HjOC9Ff333//HMcVXQaD6NiRVx2+suueIeVJvdBs6JLbmKGEx6zIqLB9VmbvV1xxxax0sdNOO0VVDEWM6oXDBjNUTCeYq6O+mpAHXCxdlugZkoAAQdbRaVSoRbmZorykB5u6yiqrZMtsGp4hKHEomLtGzbV3cV9DXR0DLKMgSGw9k/XMPMaJfWVhz+GEDRfHhTcbbLDB3OCz884716IQoSwEiWUeh4JFXe3RSz5wO/nkk5dsgsT+UIhmWSxcL5XXKY70ZkDrG/uaBBhmFIRndmQ6kNBDZ9J5vbPtaa1lpnRiolO+g4SBpW6CBAeHLXdyhWl9Dmts28jMaY2IUOF3z3veM+MjnnfLgmG3KpRnDUlFL2ykDlI/TUwDN8fXlmiWNWbIHXfcMXcuf8M0lvRYqbgP3hEkt2iFwMb1d9ZghDjWj9hZd7+7asxFPnVJDsExqm0PeVuXuhnM3SAnnnhifg6TGgYaNlndP2/Acy/lXnvtlW9xcv9EEPYg9axstl+dLDHgcIPk08Q0cHH9XBvtsvasqYMgzZA6T12NmzNa8BdHuiIsOmO8xwmT8r2OziK/URFkiQMLCHHoWpnlN+/wq4YNg588mWXEAkfdDZNfk9LCDcu6RM+QdQl1OjWsCuaq3xYEz32rvlfjD/Iuz7qlrJ3gCNjLbxHWzS/j9vssT6qA1vwx2PWbR1Pjw80+pO2jcE2FtVe44NGXYkDMkC984QtzHfRaUNPjQWYUa8hJ4w2va6+9Nl/mM+ozpePGFW5L/HnIuFqsTpZ13A3ZqTyNi50kbKlrH7JTOeMOg5cZ0po73LhhGFV58KE8sUSzrEToJIC77rprtO8iLOaoGmCU+ULmxhtvTM55XnXVVRm3UZY3rrwhQkDWVoIk4Fui9yFZR0OQpIBtc7YgKGFT32uTo/PLal8bHVtElCva5Cwt2GXtycgVReVlllkmnxuk/EwR/Nxzz00XXnhh3hekRWPTnpI4hXF3BuoQwjxfeuml+Ru2kPQv/CuvvDLFT3g8D+Kb4cwK0mKx7cO5St0WChOMfm5nojdqD5Camv0+sz8dUvuGvgn3XVw/6eRla8J+aIRJZ6tCWcLFk56PuMVz0Yx3P3HBwveTn3gR136s9PEdHNKDkX6v7+zj+BlEbJ/4ea7+zPr2a10IG/Grcab1neaT25pf//rXZy2ouvFQp+rP1prljPI8+5E3+JGYEwb6bk/dFh5fGHhs0xGmITJxyziRj3DxxBFXutVXX703gtQhXS1mlpzGHy0jA4qtG8fIaP3YtF9++eWzNk3g5JtwGjbi+kkX3/llmOf4Jp70yop4DnULF1aGx3OklY+0fp59B4f0YKQQ4ZlyhB8FCr/yOcL4oY4nf3G0Xfl9mp9XWmmluTqH56C4qJNu9SJfWmNUH5Xn2Y8Shx97SKuttlr+blZbc801s01VhsvkSSXyfve7X57xqH76Lg1fnvIQzpeeyqg02mve6+ise1Cx2c+M5+f0gmNFF1988UK+WZOeoU1vP7OO40WOGVESp2HhGJJ4JGXiHnfccemEE07IamU2fN/1rnel448/PquX8f3e/e535ziux/Yc4VU/vsnDz7v8yx9Fg/hRTPBMSCC+ePGtTBP5RRzfIu/4FmnLdPIq38vnyCv8atyAI8L54O31pyx49Rp/muKpe79Rwowt9lNGPDvw4OemaL7w8t2z+GWYuOVPGu/WweKVcbUZzoYr5Q0LXSXgw8zNamBWA+OrgZIYPS81vqJnJc1qYFYD89XAIjNklWJn79NlRGnWXtPdXv8PcnR/RwVSTLEAAAAASUVORK5CYII=;" vertex="1" parent="1">
          <mxGeometry x="470" y="80" width="228" height="188" as="geometry" />
        </mxCell>
        <mxCell id="pmO0DAG3zzc0AXKCMoeY-175" value="" style="group;fillColor=#f5f5f5;fontColor=#333333;strokeColor=#666666;sketch=0;glass=0;rounded=0;shadow=0;" vertex="1" connectable="0" parent="1">
          <mxGeometry x="240" y="80" width="50" height="50" as="geometry" />
        </mxCell>
        <mxCell id="pmO0DAG3zzc0AXKCMoeY-173" value="" style="rounded=0;whiteSpace=wrap;html=1;fontSize=9;strokeColor=default;fillColor=#f5f5f5;align=left;verticalAlign=top;fontColor=#333333;sketch=0;glass=0;shadow=0;" vertex="1" parent="pmO0DAG3zzc0AXKCMoeY-175">
          <mxGeometry width="50" height="50" as="geometry" />
        </mxCell>
        <mxCell id="pmO0DAG3zzc0AXKCMoeY-174" value="&lt;pre&gt;1,4&lt;/pre&gt;" style="text;html=1;strokeColor=none;fillColor=none;align=center;verticalAlign=middle;whiteSpace=wrap;rounded=0;fontFamily=Lucida Console;fontSize=10;fontStyle=1;sketch=0;glass=0;shadow=0;" vertex="1" parent="pmO0DAG3zzc0AXKCMoeY-175">
          <mxGeometry width="20" height="20" as="geometry" />
        </mxCell>
        <mxCell id="pmO0DAG3zzc0AXKCMoeY-185" value="" style="group;fillColor=#f5f5f5;fontColor=#333333;strokeColor=#666666;sketch=0;glass=0;rounded=0;shadow=0;" vertex="1" connectable="0" parent="1">
          <mxGeometry x="390" y="80" width="50" height="50" as="geometry" />
        </mxCell>
        <mxCell id="pmO0DAG3zzc0AXKCMoeY-186" value="" style="rounded=0;whiteSpace=wrap;html=1;fontSize=9;strokeColor=default;fillColor=#f5f5f5;align=left;verticalAlign=top;fontColor=#333333;sketch=0;glass=0;shadow=0;" vertex="1" parent="pmO0DAG3zzc0AXKCMoeY-185">
          <mxGeometry width="50" height="50" as="geometry" />
        </mxCell>
        <mxCell id="pmO0DAG3zzc0AXKCMoeY-187" value="&lt;pre&gt;&lt;b&gt;4,4&lt;/b&gt;&lt;/pre&gt;" style="text;html=1;strokeColor=none;fillColor=none;align=center;verticalAlign=middle;whiteSpace=wrap;rounded=0;fontFamily=Lucida Console;fontSize=10;sketch=0;glass=0;shadow=0;" vertex="1" parent="pmO0DAG3zzc0AXKCMoeY-185">
          <mxGeometry width="20" height="20" as="geometry" />
        </mxCell>
        <mxCell id="pmO0DAG3zzc0AXKCMoeY-182" value="" style="group;fillColor=#f5f5f5;fontColor=#333333;strokeColor=#666666;sketch=0;glass=0;rounded=0;shadow=0;" vertex="1" connectable="0" parent="1">
          <mxGeometry x="340" y="80" width="50" height="50" as="geometry" />
        </mxCell>
        <mxCell id="pmO0DAG3zzc0AXKCMoeY-183" value="" style="rounded=0;whiteSpace=wrap;html=1;fontSize=9;strokeColor=default;fillColor=#f5f5f5;align=left;verticalAlign=top;fontColor=#333333;sketch=0;glass=0;shadow=0;" vertex="1" parent="pmO0DAG3zzc0AXKCMoeY-182">
          <mxGeometry width="50" height="50" as="geometry" />
        </mxCell>
        <mxCell id="pmO0DAG3zzc0AXKCMoeY-184" value="&lt;pre&gt;3,4&lt;/pre&gt;" style="text;html=1;strokeColor=none;fillColor=none;align=center;verticalAlign=middle;whiteSpace=wrap;rounded=0;fontFamily=Lucida Console;fontSize=10;fontStyle=1;sketch=0;glass=0;shadow=0;" vertex="1" parent="pmO0DAG3zzc0AXKCMoeY-182">
          <mxGeometry width="20" height="20" as="geometry" />
        </mxCell>
        <mxCell id="pmO0DAG3zzc0AXKCMoeY-189" value="" style="group;fillColor=#f5f5f5;fontColor=#333333;strokeColor=#666666;sketch=0;glass=0;rounded=0;shadow=0;" vertex="1" connectable="0" parent="1">
          <mxGeometry x="290" y="80" width="50" height="50" as="geometry" />
        </mxCell>
        <mxCell id="pmO0DAG3zzc0AXKCMoeY-180" value="" style="rounded=0;whiteSpace=wrap;html=1;fontSize=9;strokeColor=default;fillColor=#f5f5f5;align=left;verticalAlign=top;fontColor=#333333;sketch=0;glass=0;shadow=0;" vertex="1" parent="pmO0DAG3zzc0AXKCMoeY-189">
          <mxGeometry width="50" height="50" as="geometry" />
        </mxCell>
        <mxCell id="pmO0DAG3zzc0AXKCMoeY-181" value="&lt;pre&gt;&lt;b&gt;2,4&lt;/b&gt;&lt;/pre&gt;" style="text;html=1;strokeColor=none;fillColor=none;align=center;verticalAlign=middle;whiteSpace=wrap;rounded=0;fontFamily=Lucida Console;fontSize=10;sketch=0;glass=0;shadow=0;" vertex="1" parent="pmO0DAG3zzc0AXKCMoeY-189">
          <mxGeometry width="20" height="20" as="geometry" />
        </mxCell>
        <mxCell id="pmO0DAG3zzc0AXKCMoeY-190" value="" style="group;fillColor=#f5f5f5;fontColor=#333333;strokeColor=#666666;sketch=0;glass=0;rounded=0;shadow=0;" vertex="1" connectable="0" parent="1">
          <mxGeometry x="240" y="130" width="55" height="50" as="geometry" />
        </mxCell>
        <mxCell id="pmO0DAG3zzc0AXKCMoeY-191" value="" style="rounded=0;whiteSpace=wrap;html=1;fontSize=9;strokeColor=default;fillColor=#f5f5f5;align=left;verticalAlign=top;fontColor=#333333;sketch=0;glass=0;shadow=0;" vertex="1" parent="pmO0DAG3zzc0AXKCMoeY-190">
          <mxGeometry width="50" height="50" as="geometry" />
        </mxCell>
        <mxCell id="pmO0DAG3zzc0AXKCMoeY-192" value="&lt;pre&gt;&lt;b&gt;1,3&lt;/b&gt;&lt;/pre&gt;" style="text;html=1;strokeColor=none;fillColor=none;align=center;verticalAlign=middle;whiteSpace=wrap;rounded=0;fontFamily=Lucida Console;fontSize=10;sketch=0;glass=0;shadow=0;" vertex="1" parent="pmO0DAG3zzc0AXKCMoeY-190">
          <mxGeometry width="20" height="20" as="geometry" />
        </mxCell>
        <mxCell id="pmO0DAG3zzc0AXKCMoeY-193" value="" style="group;fillColor=#f5f5f5;fontColor=#333333;strokeColor=#666666;sketch=0;glass=0;rounded=0;shadow=0;" vertex="1" connectable="0" parent="1">
          <mxGeometry x="390" y="130" width="50" height="50" as="geometry" />
        </mxCell>
        <mxCell id="pmO0DAG3zzc0AXKCMoeY-194" value="" style="rounded=0;whiteSpace=wrap;html=1;fontSize=9;strokeColor=default;fillColor=#f5f5f5;align=left;verticalAlign=top;fontColor=#333333;sketch=0;glass=0;shadow=0;" vertex="1" parent="pmO0DAG3zzc0AXKCMoeY-193">
          <mxGeometry width="50" height="50" as="geometry" />
        </mxCell>
        <mxCell id="pmO0DAG3zzc0AXKCMoeY-195" value="&lt;pre&gt;&lt;b&gt;4,3&lt;/b&gt;&lt;/pre&gt;" style="text;html=1;strokeColor=none;fillColor=none;align=center;verticalAlign=middle;whiteSpace=wrap;rounded=0;fontFamily=Lucida Console;fontSize=10;sketch=0;glass=0;shadow=0;" vertex="1" parent="pmO0DAG3zzc0AXKCMoeY-193">
          <mxGeometry width="20" height="20" as="geometry" />
        </mxCell>
        <mxCell id="pmO0DAG3zzc0AXKCMoeY-196" value="" style="group;fillColor=#f5f5f5;fontColor=#333333;strokeColor=#666666;sketch=0;glass=0;rounded=0;shadow=0;" vertex="1" connectable="0" parent="1">
          <mxGeometry x="340" y="130" width="50" height="50" as="geometry" />
        </mxCell>
        <mxCell id="pmO0DAG3zzc0AXKCMoeY-197" value="" style="rounded=0;whiteSpace=wrap;html=1;fontSize=9;strokeColor=default;fillColor=#f5f5f5;align=left;verticalAlign=top;fontColor=#333333;sketch=0;glass=0;shadow=0;" vertex="1" parent="pmO0DAG3zzc0AXKCMoeY-196">
          <mxGeometry width="50" height="50" as="geometry" />
        </mxCell>
        <mxCell id="pmO0DAG3zzc0AXKCMoeY-198" value="&lt;pre&gt;&lt;b&gt;3,3&lt;/b&gt;&lt;/pre&gt;" style="text;html=1;strokeColor=none;fillColor=none;align=center;verticalAlign=middle;whiteSpace=wrap;rounded=0;fontFamily=Lucida Console;fontSize=10;sketch=0;glass=0;shadow=0;" vertex="1" parent="pmO0DAG3zzc0AXKCMoeY-196">
          <mxGeometry width="20" height="20" as="geometry" />
        </mxCell>
        <mxCell id="pmO0DAG3zzc0AXKCMoeY-199" value="" style="group;fillColor=#f5f5f5;fontColor=#333333;strokeColor=#666666;sketch=0;glass=0;rounded=0;shadow=0;" vertex="1" connectable="0" parent="1">
          <mxGeometry x="290" y="130" width="50" height="50" as="geometry" />
        </mxCell>
        <mxCell id="pmO0DAG3zzc0AXKCMoeY-200" value="" style="rounded=0;whiteSpace=wrap;html=1;fontSize=9;strokeColor=default;fillColor=#f5f5f5;align=left;verticalAlign=top;fontColor=#333333;sketch=0;glass=0;shadow=0;" vertex="1" parent="pmO0DAG3zzc0AXKCMoeY-199">
          <mxGeometry width="50" height="50" as="geometry" />
        </mxCell>
        <mxCell id="pmO0DAG3zzc0AXKCMoeY-201" value="&lt;pre&gt;&lt;b&gt;2,3&lt;/b&gt;&lt;/pre&gt;" style="text;html=1;strokeColor=none;fillColor=none;align=center;verticalAlign=middle;whiteSpace=wrap;rounded=0;fontFamily=Lucida Console;fontSize=10;sketch=0;glass=0;shadow=0;" vertex="1" parent="pmO0DAG3zzc0AXKCMoeY-199">
          <mxGeometry width="20" height="20" as="geometry" />
        </mxCell>
        <mxCell id="pmO0DAG3zzc0AXKCMoeY-253" value="&lt;font color=&quot;#0000ff&quot;&gt;P!&lt;/font&gt;" style="rounded=0;whiteSpace=wrap;html=1;fontFamily=Lucida Console;fontSize=10;strokeColor=none;fillColor=none;align=center;verticalAlign=middle;fontStyle=1;fontColor=#59697D;labelBorderColor=none;labelBackgroundColor=none;sketch=0;glass=0;shadow=0;" vertex="1" parent="pmO0DAG3zzc0AXKCMoeY-199">
          <mxGeometry x="18.75" y="18.75" width="12.5" height="12.5" as="geometry" />
        </mxCell>
        <mxCell id="pmO0DAG3zzc0AXKCMoeY-202" value="" style="group;fillColor=#f5f5f5;fontColor=#333333;strokeColor=#666666;sketch=0;glass=0;rounded=0;shadow=0;" vertex="1" connectable="0" parent="1">
          <mxGeometry x="240" y="180" width="50" height="50" as="geometry" />
        </mxCell>
        <mxCell id="pmO0DAG3zzc0AXKCMoeY-203" value="" style="rounded=0;whiteSpace=wrap;html=1;fontSize=9;strokeColor=default;fillColor=#f5f5f5;align=left;verticalAlign=top;fontColor=#333333;sketch=0;glass=0;shadow=0;" vertex="1" parent="pmO0DAG3zzc0AXKCMoeY-202">
          <mxGeometry width="50" height="50" as="geometry" />
        </mxCell>
        <mxCell id="pmO0DAG3zzc0AXKCMoeY-204" value="&lt;pre&gt;&lt;b&gt;1,2&lt;/b&gt;&lt;/pre&gt;" style="text;html=1;strokeColor=none;fillColor=none;align=center;verticalAlign=middle;whiteSpace=wrap;rounded=0;fontFamily=Lucida Console;fontSize=10;sketch=0;glass=0;shadow=0;" vertex="1" parent="pmO0DAG3zzc0AXKCMoeY-202">
          <mxGeometry width="20" height="20" as="geometry" />
        </mxCell>
        <mxCell id="pmO0DAG3zzc0AXKCMoeY-252" value="&lt;font color=&quot;#009900&quot;&gt;w!&lt;/font&gt;" style="rounded=0;whiteSpace=wrap;html=1;fontFamily=Lucida Console;fontSize=10;strokeColor=none;fillColor=none;align=center;verticalAlign=middle;fontStyle=1;fontColor=#54664B;labelBorderColor=none;labelBackgroundColor=none;sketch=0;glass=0;shadow=0;" vertex="1" parent="pmO0DAG3zzc0AXKCMoeY-202">
          <mxGeometry x="18.75" y="18.75" width="12.5" height="12.5" as="geometry" />
        </mxCell>
        <mxCell id="pmO0DAG3zzc0AXKCMoeY-205" value="" style="group;sketch=0;glass=0;rounded=0;shadow=0;" vertex="1" connectable="0" parent="1">
          <mxGeometry x="390" y="180" width="50" height="50" as="geometry" />
        </mxCell>
        <mxCell id="pmO0DAG3zzc0AXKCMoeY-206" value="" style="rounded=0;whiteSpace=wrap;html=1;fontSize=9;strokeColor=#666666;fillColor=#f5f5f5;align=left;verticalAlign=top;fontColor=#333333;sketch=0;glass=0;shadow=0;" vertex="1" parent="pmO0DAG3zzc0AXKCMoeY-205">
          <mxGeometry width="50" height="50" as="geometry" />
        </mxCell>
        <mxCell id="pmO0DAG3zzc0AXKCMoeY-207" value="&lt;pre&gt;&lt;b&gt;4,2&lt;/b&gt;&lt;/pre&gt;" style="text;html=1;strokeColor=none;fillColor=none;align=center;verticalAlign=middle;whiteSpace=wrap;rounded=0;fontFamily=Lucida Console;fontSize=10;sketch=0;glass=0;shadow=0;" vertex="1" parent="pmO0DAG3zzc0AXKCMoeY-205">
          <mxGeometry width="20" height="20" as="geometry" />
        </mxCell>
        <mxCell id="pmO0DAG3zzc0AXKCMoeY-208" value="" style="group;fillColor=#f5f5f5;fontColor=#333333;strokeColor=#666666;sketch=0;glass=0;rounded=0;shadow=0;" vertex="1" connectable="0" parent="1">
          <mxGeometry x="340" y="180" width="50" height="50" as="geometry" />
        </mxCell>
        <mxCell id="pmO0DAG3zzc0AXKCMoeY-209" value="" style="rounded=0;whiteSpace=wrap;html=1;fontSize=9;strokeColor=default;fillColor=#f5f5f5;align=left;verticalAlign=top;fontColor=#333333;sketch=0;glass=0;shadow=0;" vertex="1" parent="pmO0DAG3zzc0AXKCMoeY-208">
          <mxGeometry width="50" height="50" as="geometry" />
        </mxCell>
        <mxCell id="pmO0DAG3zzc0AXKCMoeY-210" value="&lt;pre&gt;&lt;b&gt;3,2&lt;/b&gt;&lt;/pre&gt;" style="text;html=1;strokeColor=none;fillColor=none;align=center;verticalAlign=middle;whiteSpace=wrap;rounded=0;fontFamily=Lucida Console;fontSize=10;sketch=0;glass=0;shadow=0;" vertex="1" parent="pmO0DAG3zzc0AXKCMoeY-208">
          <mxGeometry width="20" height="20" as="geometry" />
        </mxCell>
        <mxCell id="pmO0DAG3zzc0AXKCMoeY-256" value="&lt;font color=&quot;#009900&quot;&gt;w?&lt;/font&gt;" style="rounded=0;whiteSpace=wrap;html=1;fontFamily=Lucida Console;fontSize=10;strokeColor=none;fillColor=none;align=center;verticalAlign=middle;fontStyle=1;fontColor=#54664B;labelBorderColor=none;labelBackgroundColor=none;sketch=0;glass=0;shadow=0;" vertex="1" parent="pmO0DAG3zzc0AXKCMoeY-208">
          <mxGeometry x="18.75" y="20" width="12.5" height="12.5" as="geometry" />
        </mxCell>
        <mxCell id="pmO0DAG3zzc0AXKCMoeY-211" value="" style="group;sketch=0;glass=0;rounded=0;shadow=0;" vertex="1" connectable="0" parent="1">
          <mxGeometry x="290" y="180" width="50" height="50" as="geometry" />
        </mxCell>
        <mxCell id="pmO0DAG3zzc0AXKCMoeY-212" value="" style="rounded=0;whiteSpace=wrap;html=1;fontSize=9;align=left;verticalAlign=top;sketch=0;glass=0;shadow=0;" vertex="1" parent="pmO0DAG3zzc0AXKCMoeY-211">
          <mxGeometry width="50" height="50" as="geometry" />
        </mxCell>
        <mxCell id="pmO0DAG3zzc0AXKCMoeY-213" value="&lt;pre&gt;&lt;b&gt;2,2&lt;/b&gt;&lt;/pre&gt;" style="text;html=1;strokeColor=none;fillColor=none;align=center;verticalAlign=middle;whiteSpace=wrap;rounded=0;fontFamily=Lucida Console;fontSize=10;sketch=0;glass=0;shadow=0;" vertex="1" parent="pmO0DAG3zzc0AXKCMoeY-211">
          <mxGeometry width="20" height="20" as="geometry" />
        </mxCell>
        <mxCell id="pmO0DAG3zzc0AXKCMoeY-241" value="&lt;font color=&quot;#0000ff&quot;&gt;B&lt;/font&gt;" style="rounded=0;whiteSpace=wrap;html=1;fontFamily=Lucida Console;fontSize=10;strokeColor=none;fillColor=none;align=center;verticalAlign=middle;fontStyle=1;fontColor=#59697D;labelBorderColor=none;labelBackgroundColor=none;sketch=0;glass=0;shadow=0;" vertex="1" parent="pmO0DAG3zzc0AXKCMoeY-211">
          <mxGeometry x="18.75" y="17.5" width="12.5" height="12.5" as="geometry" />
        </mxCell>
        <mxCell id="pmO0DAG3zzc0AXKCMoeY-243" value="OK" style="rounded=0;whiteSpace=wrap;html=1;fontFamily=Lucida Console;fontSize=10;strokeColor=none;fillColor=default;align=center;verticalAlign=middle;fontStyle=1;sketch=0;glass=0;shadow=0;" vertex="1" parent="pmO0DAG3zzc0AXKCMoeY-211">
          <mxGeometry x="18.75" y="30" width="12.5" height="12.5" as="geometry" />
        </mxCell>
        <mxCell id="pmO0DAG3zzc0AXKCMoeY-258" value="&lt;font color=&quot;#009900&quot;&gt;S&lt;/font&gt;" style="rounded=0;whiteSpace=wrap;html=1;fontFamily=Lucida Console;fontSize=10;strokeColor=none;fillColor=none;align=center;verticalAlign=middle;fontStyle=1;fontColor=#54664B;labelBorderColor=none;labelBackgroundColor=none;sketch=0;glass=0;shadow=0;" vertex="1" parent="pmO0DAG3zzc0AXKCMoeY-211">
          <mxGeometry x="18.75" y="5" width="12.5" height="12.5" as="geometry" />
        </mxCell>
        <mxCell id="pmO0DAG3zzc0AXKCMoeY-214" value="" style="group;sketch=0;glass=0;rounded=0;shadow=0;" vertex="1" connectable="0" parent="1">
          <mxGeometry x="240" y="230" width="50" height="50" as="geometry" />
        </mxCell>
        <mxCell id="pmO0DAG3zzc0AXKCMoeY-215" value="" style="rounded=0;whiteSpace=wrap;html=1;fontSize=9;strokeColor=#000000;fillColor=default;align=left;verticalAlign=top;sketch=0;glass=0;shadow=0;" vertex="1" parent="pmO0DAG3zzc0AXKCMoeY-214">
          <mxGeometry width="50" height="50" as="geometry" />
        </mxCell>
        <mxCell id="pmO0DAG3zzc0AXKCMoeY-216" value="&lt;pre&gt;&lt;b&gt;1,1&lt;/b&gt;&lt;/pre&gt;" style="text;html=1;strokeColor=none;fillColor=none;align=center;verticalAlign=middle;whiteSpace=wrap;rounded=0;fontFamily=Lucida Console;fontSize=10;sketch=0;glass=0;shadow=0;" vertex="1" parent="pmO0DAG3zzc0AXKCMoeY-214">
          <mxGeometry width="20" height="20" as="geometry" />
        </mxCell>
        <mxCell id="pmO0DAG3zzc0AXKCMoeY-242" value="OK" style="rounded=0;whiteSpace=wrap;html=1;fontFamily=Lucida Console;fontSize=10;strokeColor=none;fillColor=default;align=center;verticalAlign=middle;fontStyle=1;sketch=0;glass=0;shadow=0;" vertex="1" parent="pmO0DAG3zzc0AXKCMoeY-214">
          <mxGeometry x="18.75" y="31.25" width="12.5" height="12.5" as="geometry" />
        </mxCell>
        <mxCell id="pmO0DAG3zzc0AXKCMoeY-255" value="&lt;font color=&quot;#009900&quot;&gt;S&lt;/font&gt;" style="rounded=0;whiteSpace=wrap;html=1;fontFamily=Lucida Console;fontSize=10;strokeColor=none;fillColor=none;align=center;verticalAlign=middle;fontStyle=1;fontColor=#54664B;labelBorderColor=none;labelBackgroundColor=none;sketch=0;glass=0;shadow=0;" vertex="1" parent="pmO0DAG3zzc0AXKCMoeY-214">
          <mxGeometry x="18.75" y="18.75" width="12.5" height="12.5" as="geometry" />
        </mxCell>
        <mxCell id="pmO0DAG3zzc0AXKCMoeY-217" value="" style="group;sketch=0;glass=0;rounded=0;shadow=0;" vertex="1" connectable="0" parent="1">
          <mxGeometry x="390" y="230" width="50" height="50" as="geometry" />
        </mxCell>
        <mxCell id="pmO0DAG3zzc0AXKCMoeY-218" value="" style="rounded=0;whiteSpace=wrap;html=1;fontSize=9;strokeColor=default;fillColor=#f5f5f5;align=left;verticalAlign=top;fontColor=#333333;sketch=0;glass=0;shadow=0;" vertex="1" parent="pmO0DAG3zzc0AXKCMoeY-217">
          <mxGeometry width="50" height="50" as="geometry" />
        </mxCell>
        <mxCell id="pmO0DAG3zzc0AXKCMoeY-219" value="&lt;pre&gt;&lt;b&gt;4,1&lt;/b&gt;&lt;/pre&gt;" style="text;html=1;strokeColor=none;fillColor=none;align=center;verticalAlign=middle;whiteSpace=wrap;rounded=0;fontFamily=Lucida Console;fontSize=10;sketch=0;glass=0;shadow=0;" vertex="1" parent="pmO0DAG3zzc0AXKCMoeY-217">
          <mxGeometry width="20" height="20" as="geometry" />
        </mxCell>
        <mxCell id="pmO0DAG3zzc0AXKCMoeY-257" value="&lt;font color=&quot;#009900&quot;&gt;w?&lt;/font&gt;" style="rounded=0;whiteSpace=wrap;html=1;fontFamily=Lucida Console;fontSize=10;strokeColor=none;fillColor=none;align=center;verticalAlign=middle;fontStyle=1;fontColor=#54664B;labelBorderColor=none;labelBackgroundColor=none;sketch=0;glass=0;shadow=0;" vertex="1" parent="pmO0DAG3zzc0AXKCMoeY-217">
          <mxGeometry x="18.75" y="18.75" width="12.5" height="12.5" as="geometry" />
        </mxCell>
        <mxCell id="pmO0DAG3zzc0AXKCMoeY-220" value="" style="group;sketch=0;glass=0;rounded=0;shadow=0;" vertex="1" connectable="0" parent="1">
          <mxGeometry x="340" y="230" width="50" height="50" as="geometry" />
        </mxCell>
        <mxCell id="pmO0DAG3zzc0AXKCMoeY-221" value="" style="rounded=0;whiteSpace=wrap;html=1;fontSize=9;strokeColor=#000000;fillColor=default;align=left;verticalAlign=top;sketch=0;glass=0;shadow=0;" vertex="1" parent="pmO0DAG3zzc0AXKCMoeY-220">
          <mxGeometry width="50" height="50" as="geometry" />
        </mxCell>
        <mxCell id="pmO0DAG3zzc0AXKCMoeY-222" value="&lt;pre&gt;&lt;b&gt;3,1&lt;/b&gt;&lt;/pre&gt;" style="text;html=1;strokeColor=none;fillColor=none;align=center;verticalAlign=middle;whiteSpace=wrap;rounded=0;fontFamily=Lucida Console;fontSize=10;sketch=0;glass=0;shadow=0;" vertex="1" parent="pmO0DAG3zzc0AXKCMoeY-220">
          <mxGeometry width="20" height="20" as="geometry" />
        </mxCell>
        <mxCell id="pmO0DAG3zzc0AXKCMoeY-227" value="A" style="rounded=0;whiteSpace=wrap;html=1;fontFamily=Lucida Console;fontSize=10;strokeColor=default;fillColor=#ffe6cc;align=center;verticalAlign=middle;fontStyle=1;sketch=0;glass=0;shadow=0;" vertex="1" parent="pmO0DAG3zzc0AXKCMoeY-220">
          <mxGeometry x="20" y="3.75" width="12.5" height="12.5" as="geometry" />
        </mxCell>
        <mxCell id="pmO0DAG3zzc0AXKCMoeY-244" value="OK" style="rounded=0;whiteSpace=wrap;html=1;fontFamily=Lucida Console;fontSize=10;strokeColor=none;fillColor=default;align=center;verticalAlign=middle;fontStyle=1;sketch=0;glass=0;shadow=0;" vertex="1" parent="pmO0DAG3zzc0AXKCMoeY-220">
          <mxGeometry x="20" y="31.25" width="12.5" height="12.5" as="geometry" />
        </mxCell>
        <mxCell id="pmO0DAG3zzc0AXKCMoeY-259" value="&lt;font color=&quot;#009900&quot;&gt;S&lt;/font&gt;" style="rounded=0;whiteSpace=wrap;html=1;fontFamily=Lucida Console;fontSize=10;strokeColor=none;fillColor=none;align=center;verticalAlign=middle;fontStyle=1;fontColor=#54664B;labelBorderColor=none;labelBackgroundColor=none;sketch=0;glass=0;shadow=0;" vertex="1" parent="pmO0DAG3zzc0AXKCMoeY-220">
          <mxGeometry x="18.75" y="18.75" width="12.5" height="12.5" as="geometry" />
        </mxCell>
        <mxCell id="pmO0DAG3zzc0AXKCMoeY-223" value="" style="group;sketch=0;glass=0;rounded=0;shadow=0;" vertex="1" connectable="0" parent="1">
          <mxGeometry x="290" y="230" width="50" height="50" as="geometry" />
        </mxCell>
        <mxCell id="pmO0DAG3zzc0AXKCMoeY-224" value="" style="rounded=0;whiteSpace=wrap;html=1;fontSize=9;strokeColor=#000000;fillColor=default;align=left;verticalAlign=top;sketch=0;glass=0;shadow=0;" vertex="1" parent="pmO0DAG3zzc0AXKCMoeY-223">
          <mxGeometry width="50" height="50" as="geometry" />
        </mxCell>
        <mxCell id="pmO0DAG3zzc0AXKCMoeY-225" value="&lt;pre&gt;&lt;b&gt;2,1&lt;/b&gt;&lt;/pre&gt;" style="text;html=1;strokeColor=none;fillColor=none;align=center;verticalAlign=middle;whiteSpace=wrap;rounded=0;fontFamily=Lucida Console;fontSize=10;sketch=0;glass=0;shadow=0;" vertex="1" parent="pmO0DAG3zzc0AXKCMoeY-223">
          <mxGeometry width="20" height="20" as="geometry" />
        </mxCell>
        <mxCell id="pmO0DAG3zzc0AXKCMoeY-230" value="OK" style="rounded=0;whiteSpace=wrap;html=1;fontFamily=Lucida Console;fontSize=10;strokeColor=none;fillColor=default;align=center;verticalAlign=middle;fontStyle=1;sketch=0;glass=0;shadow=0;" vertex="1" parent="pmO0DAG3zzc0AXKCMoeY-223">
          <mxGeometry x="18.75" y="31.25" width="12.5" height="12.5" as="geometry" />
        </mxCell>
      </root>
    </mxGraphModel>
  </diagram>
</mxfile>
